<?xml version="1.0" encoding="utf-8"?>
<!-- Svg Vector Icons : http://www.onlinewebfonts.com/icon -->
<!DOCTYPE svg PUBLIC "-//W3C//DTD SVG 1.1//EN" "http://www.w3.org/Graphics/SVG/1.1/DTD/svg11.dtd">
<svg version="1.1" xmlns="http://www.w3.org/2000/svg" xmlns:xlink="http://www.w3.org/1999/xlink" x="0px" y="0px" viewBox="0 0 1000 1000" enable-background="new 0 0 1000 1000" xml:space="preserve">
<metadata> Svg Vector Icons : http://www.onlinewebfonts.com/icon </metadata>
<g><path d="M10,10v980h980V10H10z M920,920H80V80h840V920L920,920z"/><path d="M833.4,256.7c-19.6-18.9-51.3-18.7-70.8,0.4L397.8,616L236.3,454.5c-19.3-19.3-51-19.7-70.8-1c-19.8,18.8-20.3,49.6-1,68.9l197.1,197.1c0.1,0.1,0.3,0.1,0.4,0.3c0.1,0.1,0.2,0.3,0.3,0.3c3.1,3.1,7,4.9,10.8,7c2,1,3.5,2.7,5.5,3.5c6.1,2.5,12.5,3.6,18.9,3.6c6.4,0,12.7-1.2,18.7-3.6c1.9-0.8,3.5-2.3,5.3-3.3c3.8-2,7.7-3.8,10.8-6.9c0.1-0.1,0.2-0.3,0.3-0.4c0.1-0.1,0.3-0.2,0.4-0.3l400.7-394.2C853.2,306.5,853,275.6,833.4,256.7z"/></g>
</svg>