<?xml version="1.0" encoding="utf-8"?>
<!-- Svg Vector Icons : http://www.onlinewebfonts.com/icon -->
<!DOCTYPE svg PUBLIC "-//W3C//DTD SVG 1.1//EN" "http://www.w3.org/Graphics/SVG/1.1/DTD/svg11.dtd">
<svg version="1.1" xmlns="http://www.w3.org/2000/svg" xmlns:xlink="http://www.w3.org/1999/xlink" x="0px" y="0px" viewBox="0 0 1000 1000" enable-background="new 0 0 1000 1000" xml:space="preserve">
<metadata> Svg Vector Icons : http://www.onlinewebfonts.com/icon </metadata>
<g><g transform="translate(0.000000,511.000000) scale(0.100000,-0.100000)"><path d="M4515.4,4047.4v-485.6h513.2c280.8,0,545.4-9.2,589.1-23c133.5-36.8,250.8-135.8,313-260c57.5-115.1,57.5-124.3,57.5-665.1V2066H3491.4c-1746.6,0-2531.3-6.9-2616.5-25.3c-382-80.5-678.9-384.3-754.8-768.6c-18.4-96.7-23-476.4-18.4-1254.2l6.9-1116.1l82.8-172.6c105.9-223.2,255.4-372.8,481-480.9l172.6-82.9l2572.8-6.9l2570.5-4.6v-547.7c0-607.5-11.5-658.1-161.1-803.1c-131.2-128.9-223.2-145-798.5-145h-513.2v-485.6V-4313l605.2,11.5c455.6,6.9,635.1,18.4,734.1,48.3c161.1,43.7,421.1,172.6,517.8,253.1c87.4,73.6,110.5,73.6,197.9,0c96.7-80.5,356.7-209.4,517.8-253.1c98.9-29.9,278.5-41.4,736.4-48.3l602.9-11.5v485.6v485.6H7912c-547.7,0-630.5,11.5-773.2,117.4c-36.8,29.9-94.3,103.6-126.6,168c-57.5,112.8-57.5,124.3-57.5,662.8v547.7h1024.1c658.1,0,1065.5,9.2,1143.7,25.3c361.3,75.9,676.5,391.2,752.5,752.5c32.2,158.8,34.5,2229.9,0,2372.6c-80.5,352.1-384.3,655.8-736.4,736.4c-59.8,13.8-524.7,25.3-1141.4,25.3H6954.7v547.7c0,600.6,11.5,655.8,151.9,793.9c138.1,138.1,156.5,142.7,764,149.6l556.9,6.9v485.6V4533l-602.9-11.5c-660.5-11.5-750.2-25.3-1014.8-156.5c-78.3-36.8-181.8-99-227.8-138.1c-46-36.8-96.7-66.7-110.4-66.7s-64.4,29.9-110.5,66.7c-46,39.1-149.6,101.3-227.8,138.1c-262.3,131.2-354.4,145-1012.5,156.5l-605.2,11.5V4047.4z M5988.2,110v-989.5H3525.9H1063.6V110v989.5h2462.3h2462.3V110z M8933.8,110v-989.5h-989.5h-989.5V110v989.5h989.5h989.5V110z"/></g></g>
</svg>