<?xml version="1.0" encoding="utf-8"?>
<!-- Svg Vector Icons : http://www.onlinewebfonts.com/icon -->
<!DOCTYPE svg PUBLIC "-//W3C//DTD SVG 1.1//EN" "http://www.w3.org/Graphics/SVG/1.1/DTD/svg11.dtd">
<svg version="1.1" xmlns="http://www.w3.org/2000/svg" xmlns:xlink="http://www.w3.org/1999/xlink" x="0px" y="0px" viewBox="0 0 1000 1000" enable-background="new 0 0 1000 1000" xml:space="preserve">
<metadata> Svg Vector Icons : http://www.onlinewebfonts.com/icon </metadata>
<g><path d="M464.4,207.2h485.2c22.3,0,40.4-18.1,40.4-40.4c0-22.3-18.1-40.4-40.4-40.4H464.4c-22.3,0-40.4,18.1-40.4,40.4C423.9,189.1,442,207.2,464.4,207.2z M949.6,490.2H464.4c-22.3,0-40.4,18.1-40.4,40.4c0,22.3,18.1,40.4,40.4,40.4h485.2c22.3,0,40.4-18.1,40.4-40.4C990,508.3,971.9,490.2,949.6,490.2z M949.6,854.1H464.4c-22.3,0-40.4,18.1-40.4,40.4c0,22.3,18.1,40.4,40.4,40.4h485.2c22.3,0,40.4-18.1,40.4-40.4C990,872.2,971.9,854.1,949.6,854.1z M291.2,34L145.9,179.4L61.8,95.3c-11.8-11.8-31-11.8-42.9,0c-11.8,11.8-11.8,31,0,42.9l100.1,100.1c7.4,7.4,17.5,10.1,27,8.4c9.5,1.8,19.8-1,27.2-8.4L334.3,77.1c11.9-11.9,11.9-31.2,0-43.1C322.4,22.1,303.1,22.1,291.2,34z M291.2,397.9L145.9,543.3l-84.1-84.1c-11.8-11.8-31-11.8-42.9,0C7,471,7,490.2,18.9,502.1l100.1,100.1c7.4,7.4,17.5,10.1,27,8.4c9.5,1.8,19.8-1,27.2-8.4L334.3,441c11.9-11.9,11.9-31.2,0-43.1C322.4,386,303.1,386,291.2,397.9z M291.2,761.8L145.9,907.2l-84.1-84.1c-11.8-11.8-31-11.8-42.9,0C7,834.9,7,854.1,18.9,866L118.9,966c7.4,7.4,17.5,10.1,27.1,8.4c9.5,1.8,19.8-1,27.2-8.4l161.1-161.1c11.9-11.9,11.9-31.2,0-43.1C322.4,749.9,303.1,749.9,291.2,761.8z"/></g>
</svg>