<?xml version="1.0" encoding="utf-8"?>
<!-- Svg Vector Icons : http://www.onlinewebfonts.com/icon -->
<!DOCTYPE svg PUBLIC "-//W3C//DTD SVG 1.1//EN" "http://www.w3.org/Graphics/SVG/1.1/DTD/svg11.dtd">
<svg version="1.1" xmlns="http://www.w3.org/2000/svg" xmlns:xlink="http://www.w3.org/1999/xlink" x="0px" y="0px" viewBox="0 0 1000 1000" enable-background="new 0 0 1000 1000" xml:space="preserve">
<metadata> Svg Vector Icons : http://www.onlinewebfonts.com/icon </metadata>
<g><g><path d="M10,163.1v673.8h980V163.1H10z M377.5,591.9V469.4h245v122.5H377.5z M622.5,653.1v122.5h-245V653.1H622.5z M622.5,285.6v122.5h-245V285.6H622.5z M316.3,285.6v122.5h-245V285.6H316.3z M71.2,469.4h245v122.5h-245V469.4z M683.8,469.4h245v122.5h-245V469.4z M683.8,408.1V285.6h245v122.5H683.8z M71.2,653.1h245v122.5h-245V653.1z M683.8,775.6V653.1h245v122.5H683.8z"/></g><g></g><g></g><g></g><g></g><g></g><g></g><g></g><g></g><g></g><g></g><g></g><g></g><g></g><g></g><g></g></g>
</svg>