<?xml version="1.0" encoding="utf-8"?>
<!-- Svg Vector Icons : http://www.onlinewebfonts.com/icon -->
<!DOCTYPE svg PUBLIC "-//W3C//DTD SVG 1.1//EN" "http://www.w3.org/Graphics/SVG/1.1/DTD/svg11.dtd">
<svg version="1.1" xmlns="http://www.w3.org/2000/svg" xmlns:xlink="http://www.w3.org/1999/xlink" x="0px" y="0px" viewBox="0 0 1000 1000" enable-background="new 0 0 1000 1000" xml:space="preserve">
<metadata> Svg Vector Icons : http://www.onlinewebfonts.com/icon </metadata>
<g><path d="M900.2,79.1c11.1,0,20.7,9.7,20.7,20.7v800.3c0,11.1-9.7,20.7-20.7,20.7H99.8c-11.1,0-20.7-9.7-20.7-20.7V101.2c0-11.1,9.7-20.7,20.7-20.7h800.3 M900.2,10H99.8C50.1,10,10,50.1,10,99.8v800.3c0,49.8,40.1,89.8,89.8,89.8h800.3c49.8,0,89.8-40.1,89.8-89.8V101.2C990,50.1,949.9,10,900.2,10L900.2,10z"/><path d="M52.8,491h892.9H52.8z"/><path d="M499.3,45.9v905.4V45.9z"/></g>
</svg>